<svg width="19" height="18" viewBox="0 0 19 18" fill="none" xmlns="http://www.w3.org/2000/svg">
<path fill-rule="evenodd" clip-rule="evenodd" d="M10.1622 3.13275L11.5327 5.87082C11.6671 6.13962 11.9263 6.32601 12.227 6.36914L15.293 6.81046C16.0505 6.91983 16.3519 7.83791 15.8037 8.36396L13.5866 10.4943C13.3687 10.7038 13.2696 11.005 13.3211 11.3007L13.8443 14.3084C13.9732 15.0524 13.1813 15.62 12.5042 15.268L9.76389 13.847C9.49525 13.7076 9.1735 13.7076 8.90407 13.847L6.16374 15.268C5.48666 15.62 4.69478 15.0524 4.82442 14.3084L5.34687 11.3007C5.39841 11.005 5.29923 10.7038 5.08135 10.4943L2.86424 8.36396C2.31602 7.83791 2.61747 6.91983 3.37498 6.81046L6.44097 6.36914C6.74164 6.32601 7.00169 6.13962 7.13601 5.87082L8.50579 3.13275C8.84472 2.45575 9.82325 2.45575 10.1622 3.13275Z" fill="#FFB800"/>
</svg>
