<svg width="20" height="20" viewBox="0 0 20 20" fill="none" xmlns="http://www.w3.org/2000/svg">
<g clip-path="url(#clip0_3_12876)">
<path d="M17.4816 8.33334C17.4816 14.1667 9.98739 19.1667 9.98739 19.1667C9.98739 19.1667 2.49316 14.1667 2.49316 8.33334C2.49316 6.34422 3.28273 4.43656 4.68817 3.03004C6.09361 1.62352 7.9998 0.833344 9.98739 0.833344C11.975 0.833344 13.8812 1.62352 15.2866 3.03004C16.6921 4.43656 17.4816 6.34422 17.4816 8.33334Z" stroke="#17C2EC" stroke-width="2" stroke-linecap="round" stroke-linejoin="round"/>
<path d="M9.98733 10.8333C11.367 10.8333 12.4854 9.71406 12.4854 8.33334C12.4854 6.95263 11.367 5.83334 9.98733 5.83334C8.60769 5.83334 7.48926 6.95263 7.48926 8.33334C7.48926 9.71406 8.60769 10.8333 9.98733 10.8333Z" stroke="#17C2EC" stroke-width="2" stroke-linecap="round" stroke-linejoin="round"/>
</g>
<defs>
<clipPath id="clip0_3_12876">
<rect width="19.9846" height="20" fill="white" transform="translate(-0.00488281)"/>
</clipPath>
</defs>
</svg>
