<svg width="121" height="40" viewBox="0 0 121 40" fill="none" xmlns="http://www.w3.org/2000/svg">
<rect x="0.833984" y="0.5" width="119" height="39" rx="7.5" fill="black"/>
<rect x="0.833984" y="0.5" width="119" height="39" rx="7.5" stroke="#A6A6A6"/>
<path d="M25.104 20.3007C25.1147 19.4661 25.3364 18.6477 25.7484 17.9218C26.1605 17.1958 26.7494 16.5859 27.4605 16.1487C27.0088 15.5035 26.4128 14.9726 25.72 14.598C25.0272 14.2235 24.2566 14.0156 23.4694 13.991C21.7901 13.8147 20.1622 14.9958 19.3065 14.9958C18.4342 14.9958 17.1167 14.0085 15.698 14.0377C14.7803 14.0673 13.8859 14.3342 13.1021 14.8123C12.3182 15.2903 11.6715 15.9633 11.225 16.7656C9.29103 20.114 10.7336 25.035 12.5862 27.7416C13.5131 29.067 14.5964 30.5474 16.0139 30.4949C17.4009 30.4374 17.919 29.6105 19.5933 29.6105C21.252 29.6105 21.7381 30.4949 23.1843 30.4616C24.6726 30.4374 25.6104 29.1303 26.5048 27.7924C27.1707 26.8481 27.6832 25.8043 28.0232 24.6999C27.1585 24.3342 26.4206 23.722 25.9014 22.9397C25.3823 22.1574 25.105 21.2396 25.104 20.3007Z" fill="white"/>
<path d="M22.3723 12.211C23.1839 11.2367 23.5837 9.98457 23.4868 8.72034C22.247 8.85056 21.1018 9.44312 20.2793 10.3799C19.8771 10.8376 19.5691 11.37 19.3729 11.9468C19.1766 12.5236 19.096 13.1334 19.1356 13.7413C19.7557 13.7477 20.3692 13.6133 20.9299 13.3482C21.4905 13.0831 21.9837 12.6943 22.3723 12.211Z" fill="white"/>
<path d="M42.6365 27.1397H37.9031L36.7664 30.4961H34.7615L39.2449 18.0781H41.3279L45.8113 30.4961H43.7722L42.6365 27.1397ZM38.3933 25.5908H42.1453L40.2957 20.1436H40.2439L38.3933 25.5908Z" fill="white"/>
<path d="M55.4939 25.9697C55.4939 28.7832 53.988 30.5908 51.7156 30.5908C51.1399 30.6209 50.5674 30.4883 50.0636 30.2082C49.5598 29.9281 49.1451 29.5117 48.867 29.0068H48.8239V33.4912H46.9655V21.4424H48.7644V22.9483H48.7986C49.0895 22.4458 49.5113 22.0316 50.0189 21.7498C50.5265 21.4679 51.1011 21.3289 51.6814 21.3477C53.9792 21.3477 55.4939 23.1641 55.4939 25.9697ZM53.5837 25.9697C53.5837 24.1367 52.6365 22.9317 51.1912 22.9317C49.7712 22.9317 48.8162 24.1621 48.8162 25.9697C48.8162 27.794 49.7712 29.0156 51.1912 29.0156C52.6365 29.0156 53.5837 27.8194 53.5837 25.9697Z" fill="white"/>
<path d="M65.4587 25.9697C65.4587 28.7832 63.9529 30.5908 61.6804 30.5908C61.1048 30.6209 60.5323 30.4883 60.0285 30.2082C59.5247 29.9281 59.11 29.5117 58.8318 29.0068H58.7888V33.4912H56.9304V21.4424H58.7292V22.9483H58.7634C59.0543 22.4458 59.4761 22.0316 59.9837 21.7498C60.4913 21.4679 61.0659 21.329 61.6462 21.3477C63.9441 21.3477 65.4587 23.1641 65.4587 25.9697ZM63.5486 25.9697C63.5486 24.1367 62.6013 22.9317 61.156 22.9317C59.7361 22.9317 58.781 24.1621 58.781 25.9697C58.781 27.794 59.7361 29.0156 61.156 29.0156C62.6013 29.0156 63.5486 27.8194 63.5486 25.9697Z" fill="white"/>
<path d="M72.0447 27.0361C72.1824 28.2676 73.3787 29.0761 75.0134 29.0761C76.5798 29.0761 77.7068 28.2676 77.7068 27.1572C77.7068 26.1933 77.0271 25.6162 75.4177 25.2207L73.8084 24.833C71.5281 24.2822 70.4695 23.2158 70.4695 21.4853C70.4695 19.3427 72.3367 17.8711 74.988 17.8711C77.612 17.8711 79.4109 19.3427 79.4714 21.4853H77.5954C77.4831 20.2461 76.4587 19.498 74.9617 19.498C73.4646 19.498 72.4402 20.2549 72.4402 21.3564C72.4402 22.2343 73.0945 22.7509 74.6951 23.1464L76.0632 23.4824C78.6111 24.0849 79.6697 25.1084 79.6697 26.9247C79.6697 29.248 77.8191 30.7031 74.8757 30.7031C72.1218 30.7031 70.2624 29.2822 70.1423 27.0361L72.0447 27.0361Z" fill="white"/>
<path d="M83.6804 19.2998V21.4424H85.4021V22.9141H83.6804V27.9053C83.6804 28.6807 84.0252 29.042 84.782 29.042C84.9864 29.0384 85.1904 29.0241 85.3933 28.999V30.4619C85.053 30.5255 84.7072 30.5543 84.3611 30.5478C82.5281 30.5478 81.8132 29.8594 81.8132 28.1035V22.9141H80.4968V21.4424H81.8132V19.2998H83.6804Z" fill="white"/>
<path d="M86.3992 25.9697C86.3992 23.1211 88.0769 21.3311 90.6932 21.3311C93.3182 21.3311 94.9881 23.1211 94.9881 25.9697C94.9881 28.8262 93.327 30.6084 90.6932 30.6084C88.0603 30.6084 86.3992 28.8262 86.3992 25.9697ZM93.0945 25.9697C93.0945 24.0156 92.199 22.8623 90.6932 22.8623C89.1873 22.8623 88.2928 24.0244 88.2928 25.9697C88.2928 27.9317 89.1873 29.0762 90.6932 29.0762C92.199 29.0762 93.0945 27.9317 93.0945 25.9697Z" fill="white"/>
<path d="M96.5203 21.4424H98.2927V22.9834H98.3357C98.4557 22.5021 98.7376 22.0768 99.1342 21.7789C99.5308 21.481 100.018 21.3287 100.513 21.3477C100.728 21.3469 100.941 21.3702 101.15 21.417V23.1553C100.88 23.0727 100.598 23.0347 100.315 23.043C100.045 23.032 99.7761 23.0796 99.5262 23.1825C99.2764 23.2854 99.0518 23.4411 98.8678 23.639C98.6838 23.8369 98.5448 24.0723 98.4604 24.3289C98.376 24.5856 98.3481 24.8575 98.3787 25.126V30.4961H96.5203L96.5203 21.4424Z" fill="white"/>
<path d="M109.719 27.8369C109.469 29.4805 107.868 30.6084 105.82 30.6084C103.186 30.6084 101.552 28.8438 101.552 26.0127C101.552 23.1729 103.195 21.3311 105.742 21.3311C108.247 21.3311 109.822 23.0518 109.822 25.7969V26.4336H103.428V26.5459C103.398 26.8791 103.44 27.2148 103.55 27.5306C103.66 27.8464 103.836 28.1352 104.067 28.3778C104.297 28.6203 104.576 28.8111 104.886 28.9374C105.196 29.0637 105.529 29.1227 105.863 29.1104C106.302 29.1515 106.743 29.0498 107.12 28.8203C107.496 28.5909 107.789 28.246 107.954 27.8369L109.719 27.8369ZM103.436 25.1348H107.963C107.979 24.8352 107.934 24.5354 107.829 24.2542C107.725 23.9729 107.563 23.7164 107.354 23.5006C107.146 23.2849 106.895 23.1145 106.618 23.0003C106.34 22.8861 106.042 22.8305 105.742 22.8369C105.439 22.8351 105.139 22.8933 104.859 23.008C104.579 23.1227 104.325 23.2918 104.11 23.5054C103.896 23.7191 103.726 23.9731 103.61 24.2527C103.495 24.5324 103.436 24.8321 103.436 25.1348Z" fill="white"/>
<path d="M38.1604 8.73101C38.55 8.70305 38.941 8.76191 39.3051 8.90334C39.6692 9.04478 39.9974 9.26526 40.266 9.54888C40.5346 9.83251 40.7368 10.1722 40.8582 10.5435C40.9797 10.9147 41.0171 11.3083 40.968 11.6959C40.968 13.6021 39.9377 14.6979 38.1604 14.6979H36.0051V8.73101H38.1604ZM36.9319 13.854H38.0569C38.3353 13.8707 38.6139 13.825 38.8724 13.7204C39.131 13.6158 39.3629 13.4548 39.5514 13.2493C39.7399 13.0437 39.8802 12.7987 39.9621 12.5321C40.0439 12.2655 40.0653 11.9839 40.0247 11.708C40.0624 11.4332 40.0388 11.1534 39.9557 10.8887C39.8726 10.6241 39.7319 10.3811 39.5439 10.1771C39.3558 9.97321 39.125 9.81341 38.8679 9.70917C38.6108 9.60493 38.3339 9.55885 38.0569 9.57422H36.9319V13.854Z" fill="white"/>
<path d="M42.0149 12.4444C41.9866 12.1484 42.0204 11.8499 42.1143 11.5678C42.2081 11.2857 42.3599 11.0264 42.5598 10.8064C42.7598 10.5864 43.0035 10.4107 43.2753 10.2904C43.5472 10.1701 43.8412 10.108 44.1384 10.108C44.4357 10.108 44.7297 10.1701 45.0015 10.2904C45.2734 10.4107 45.5171 10.5864 45.717 10.8064C45.917 11.0264 46.0687 11.2857 46.1626 11.5678C46.2564 11.8499 46.2903 12.1484 46.262 12.4444C46.2908 12.7406 46.2574 13.0396 46.1638 13.3221C46.0702 13.6046 45.9185 13.8644 45.7185 14.0848C45.5185 14.3053 45.2746 14.4814 45.0025 14.6019C44.7304 14.7225 44.436 14.7847 44.1384 14.7847C43.8408 14.7847 43.5465 14.7225 43.2743 14.6019C43.0022 14.4814 42.7583 14.3053 42.5583 14.0848C42.3583 13.8644 42.2067 13.6046 42.1131 13.3221C42.0195 13.0396 41.986 12.7406 42.0149 12.4444ZM45.3479 12.4444C45.3479 11.4683 44.9094 10.8975 44.1399 10.8975C43.3674 10.8975 42.9329 11.4683 42.9329 12.4444C42.9329 13.4283 43.3675 13.9947 44.1399 13.9947C44.9094 13.9946 45.3479 13.4243 45.3479 12.4444Z" fill="white"/>
<path d="M51.9075 14.6978H50.9856L50.0549 11.3814H49.9846L49.0579 14.6978H48.1448L46.9036 10.1948H47.8049L48.6116 13.6308H48.678L49.6038 10.1948H50.4563L51.3821 13.6308H51.4524L52.2551 10.1948H53.1438L51.9075 14.6978Z" fill="white"/>
<path d="M54.1877 10.1948H55.0432V10.9102H55.1096C55.2223 10.6532 55.4123 10.4379 55.6531 10.2941C55.894 10.1503 56.1738 10.0852 56.4534 10.1079C56.6725 10.0914 56.8925 10.1245 57.0971 10.2046C57.3017 10.2847 57.4856 10.4098 57.6353 10.5706C57.785 10.7315 57.8966 10.9239 57.9618 11.1337C58.027 11.3436 58.0441 11.5654 58.012 11.7827V14.6977H57.1233V12.0059C57.1233 11.2822 56.8088 10.9224 56.1516 10.9224C56.0029 10.9154 55.8544 10.9408 55.7163 10.9966C55.5782 11.0524 55.4539 11.1374 55.3518 11.2458C55.2496 11.3542 55.1722 11.4834 55.1246 11.6245C55.0771 11.7657 55.0607 11.9154 55.0764 12.0635V14.6978H54.1877L54.1877 10.1948Z" fill="white"/>
<path d="M59.428 8.43701H60.3167V14.6978H59.428V8.43701Z" fill="white"/>
<path d="M61.552 12.4444C61.5237 12.1484 61.5576 11.8498 61.6514 11.5677C61.7453 11.2857 61.8971 11.0263 62.0971 10.8063C62.297 10.5863 62.5407 10.4106 62.8126 10.2903C63.0845 10.17 63.3785 10.1079 63.6758 10.1079C63.9731 10.1079 64.2671 10.17 64.5389 10.2903C64.8108 10.4106 65.0545 10.5863 65.2545 10.8063C65.4545 11.0263 65.6062 11.2857 65.7001 11.5677C65.794 11.8498 65.8278 12.1484 65.7996 12.4444C65.8284 12.7406 65.7949 13.0396 65.7013 13.3221C65.6076 13.6046 65.456 13.8644 65.2559 14.0848C65.0559 14.3052 64.812 14.4814 64.5399 14.6019C64.2677 14.7224 63.9734 14.7847 63.6758 14.7847C63.3782 14.7847 63.0838 14.7224 62.8117 14.6019C62.5395 14.4814 62.2956 14.3052 62.0956 14.0848C61.8956 13.8644 61.7439 13.6046 61.6503 13.3221C61.5567 13.0396 61.5232 12.7406 61.552 12.4444ZM64.885 12.4444C64.885 11.4683 64.4465 10.8975 63.677 10.8975C62.9045 10.8975 62.47 11.4683 62.47 12.4444C62.47 13.4283 62.9046 13.9947 63.677 13.9947C64.4465 13.9946 64.885 13.4243 64.885 12.4444Z" fill="white"/>
<path d="M66.7351 13.4243C66.7351 12.6138 67.3386 12.1465 68.4099 12.0801L69.6296 12.0098V11.6211C69.6296 11.1455 69.3152 10.877 68.7078 10.877C68.2117 10.877 67.8679 11.0591 67.7693 11.3775H66.9089C66.9998 10.604 67.7273 10.1079 68.7488 10.1079C69.8777 10.1079 70.5144 10.6699 70.5144 11.6211V14.6978H69.6589V14.065H69.5886C69.4459 14.292 69.2455 14.477 69.0079 14.6012C68.7703 14.7254 68.5039 14.7843 68.2361 14.772C68.0471 14.7916 67.856 14.7715 67.6752 14.7128C67.4945 14.6541 67.328 14.5581 67.1866 14.4312C67.0452 14.3042 66.9319 14.149 66.8542 13.9756C66.7764 13.8022 66.7359 13.6144 66.7351 13.4243ZM69.6296 13.0396V12.6631L68.53 12.7334C67.9099 12.7749 67.6287 12.9859 67.6287 13.3828C67.6287 13.7881 67.9802 14.0239 68.4637 14.0239C68.6053 14.0383 68.7484 14.024 68.8844 13.9819C69.0204 13.9398 69.1465 13.8708 69.2553 13.7789C69.3641 13.6871 69.4533 13.5743 69.5176 13.4473C69.5819 13.3203 69.62 13.1816 69.6296 13.0396Z" fill="white"/>
<path d="M71.6824 12.4444C71.6824 11.0215 72.4138 10.1201 73.5515 10.1201C73.8329 10.1072 74.1122 10.1746 74.3568 10.3145C74.6013 10.4544 74.8009 10.661 74.9324 10.9101H74.9988V8.43701H75.8875V14.6978H75.0359V13.9863H74.9656C74.824 14.2338 74.6174 14.4378 74.3681 14.5763C74.1189 14.7148 73.8365 14.7825 73.5515 14.772C72.406 14.772 71.6824 13.8706 71.6824 12.4444ZM72.6004 12.4444C72.6004 13.3994 73.0506 13.9741 73.8035 13.9741C74.5525 13.9741 75.0154 13.3911 75.0154 12.4483C75.0154 11.5098 74.5476 10.9185 73.8035 10.9185C73.0554 10.9185 72.6004 11.4971 72.6004 12.4444Z" fill="white"/>
<path d="M79.5642 12.4444C79.5359 12.1484 79.5697 11.8499 79.6636 11.5678C79.7574 11.2857 79.9092 11.0264 80.1091 10.8064C80.3091 10.5864 80.5528 10.4107 80.8246 10.2904C81.0965 10.1701 81.3905 10.108 81.6877 10.108C81.985 10.108 82.279 10.1701 82.5508 10.2904C82.8227 10.4107 83.0664 10.5864 83.2663 10.8064C83.4663 11.0264 83.618 11.2857 83.7119 11.5678C83.8057 11.8499 83.8396 12.1484 83.8113 12.4444C83.8401 12.7406 83.8067 13.0396 83.7131 13.3221C83.6195 13.6046 83.4678 13.8644 83.2678 14.0848C83.0678 14.3053 82.8239 14.4814 82.5518 14.6019C82.2797 14.7225 81.9854 14.7847 81.6877 14.7847C81.3901 14.7847 81.0958 14.7225 80.8237 14.6019C80.5515 14.4814 80.3076 14.3053 80.1077 14.0848C79.9077 13.8644 79.756 13.6046 79.6624 13.3221C79.5688 13.0396 79.5354 12.7406 79.5642 12.4444ZM82.8972 12.4444C82.8972 11.4683 82.4587 10.8975 81.6892 10.8975C80.9167 10.8975 80.4822 11.4683 80.4822 12.4444C80.4822 13.4283 80.9168 13.9947 81.6892 13.9947C82.4587 13.9946 82.8972 13.4243 82.8972 12.4444Z" fill="white"/>
<path d="M85.0037 10.1948H85.8591V10.9102H85.9255C86.0382 10.6532 86.2282 10.4379 86.4691 10.2941C86.7099 10.1503 86.9897 10.0852 87.2693 10.1079C87.4884 10.0914 87.7084 10.1245 87.913 10.2046C88.1176 10.2847 88.3015 10.4098 88.4512 10.5706C88.6009 10.7315 88.7125 10.9239 88.7777 11.1337C88.8429 11.3436 88.86 11.5654 88.8279 11.7827V14.6977H87.9392V12.0059C87.9392 11.2822 87.6248 10.9224 86.9675 10.9224C86.8188 10.9154 86.6703 10.9408 86.5322 10.9966C86.3942 11.0524 86.2698 11.1374 86.1677 11.2458C86.0656 11.3542 85.9881 11.4834 85.9406 11.6245C85.893 11.7657 85.8766 11.9154 85.8923 12.0635V14.6978H85.0037V10.1948Z" fill="white"/>
<path d="M93.8494 9.07374V10.2153H94.825V10.9639H93.8494V13.2793C93.8494 13.751 94.0437 13.9575 94.4861 13.9575C94.5993 13.9572 94.7125 13.9503 94.825 13.937V14.6773C94.6654 14.7058 94.5037 14.721 94.3416 14.7227C93.3533 14.7227 92.9597 14.375 92.9597 13.5068V10.9638H92.2449V10.2153H92.9597V9.07374H93.8494Z" fill="white"/>
<path d="M96.0388 8.43701H96.9197V10.9185H96.99C97.1081 10.6591 97.3033 10.4425 97.549 10.2982C97.7947 10.1539 98.079 10.0888 98.363 10.1118C98.581 10.1 98.7988 10.1364 99.0011 10.2184C99.2034 10.3004 99.3851 10.4261 99.5332 10.5864C99.6813 10.7468 99.7922 10.9378 99.858 11.146C99.9238 11.3541 99.9428 11.5742 99.9138 11.7905V14.6978H99.0242V12.0098C99.0242 11.2905 98.6892 10.9263 98.0613 10.9263C97.9086 10.9137 97.755 10.9347 97.6112 10.9878C97.4674 11.0408 97.337 11.1247 97.229 11.2334C97.121 11.3421 97.038 11.4732 96.986 11.6173C96.9339 11.7614 96.914 11.9152 96.9275 12.0679V14.6977H96.0389L96.0388 8.43701Z" fill="white"/>
<path d="M105.095 13.4819C104.975 13.8935 104.713 14.2495 104.356 14.4876C104 14.7258 103.571 14.8309 103.144 14.7847C102.848 14.7925 102.553 14.7357 102.28 14.6182C102.008 14.5006 101.764 14.3252 101.566 14.1041C101.368 13.8829 101.221 13.6214 101.134 13.3376C101.048 13.0537 101.024 12.7544 101.064 12.4605C101.025 12.1656 101.049 11.8656 101.136 11.581C101.222 11.2963 101.369 11.0335 101.566 10.8105C101.762 10.5874 102.005 10.4092 102.277 10.288C102.548 10.1668 102.843 10.1054 103.14 10.1079C104.393 10.1079 105.149 10.9639 105.149 12.3779V12.688H101.969V12.7378C101.956 12.9031 101.976 13.0694 102.03 13.2261C102.085 13.3829 102.171 13.5266 102.284 13.6481C102.397 13.7695 102.534 13.866 102.686 13.9314C102.839 13.9968 103.003 14.0297 103.169 14.0278C103.381 14.0533 103.597 14.0151 103.787 13.9178C103.978 13.8206 104.136 13.6689 104.24 13.4819L105.095 13.4819ZM101.969 12.0308H104.244C104.255 11.8796 104.235 11.7278 104.184 11.5851C104.133 11.4424 104.052 11.3119 103.948 11.2021C103.844 11.0922 103.717 11.0054 103.577 10.9472C103.438 10.8891 103.287 10.8608 103.135 10.8643C102.982 10.8623 102.829 10.8912 102.687 10.9491C102.545 11.0071 102.415 11.0929 102.307 11.2017C102.198 11.3104 102.112 11.4397 102.054 11.5821C101.996 11.7245 101.967 11.8771 101.969 12.0308Z" fill="white"/>
</svg>
