<svg width="953" height="29" viewBox="0 0 953 29" fill="none" xmlns="http://www.w3.org/2000/svg">
<path d="M6.76167 14.5L3.54619 17.7751L0.333496 14.5L3.54619 11.2249L6.76167 14.5ZM14.5572 6.54738L20.0627 12.1627L23.2754 8.88755L14.5572 0L5.83899 8.88755L9.05169 12.1627L14.5572 6.54738ZM25.5709 11.2249L22.3582 14.5L25.5709 17.7751L28.7809 14.5L25.5709 11.2249ZM14.5572 22.4526L9.05169 16.8402L5.83899 20.1124L14.5572 29L23.2754 20.1124L20.0627 16.8402L14.5572 22.4526ZM14.5572 17.7751L17.7699 14.5L14.5572 11.2249L11.3445 14.5L14.5572 17.7751ZM48.4628 18.0896V18.0442C48.4628 15.9081 47.3511 14.84 45.5419 14.1374C46.6536 13.4999 47.5929 12.4998 47.5929 10.7064V10.6611C47.5929 8.16227 45.6308 6.54738 42.4432 6.54738H35.2063V22.4526H42.6266C46.1478 22.4526 48.4684 20.9992 48.4684 18.0896H48.4628ZM44.1829 11.2901C44.1829 12.4715 43.2241 12.9729 41.7095 12.9729H38.5496V9.61567H41.9374C43.3853 9.61567 44.1885 10.205 44.1885 11.2504L44.1829 11.2901ZM45.0528 17.6533C45.0528 18.8347 44.1384 19.3787 42.621 19.3787H38.5496V15.8854H42.5154C44.2774 15.8854 45.0583 16.5455 45.0583 17.6136L45.0528 17.6533ZM55.6747 22.4526V6.54738H52.2313V22.4526H55.6747ZM74.1255 22.4526V6.54738H70.7266V16.3415L63.4174 6.54738H60.2519V22.4526H63.6397V12.3411L71.1935 22.4526H74.1255ZM93.1376 22.4526L86.4399 6.43405H83.2744L76.5906 22.4526H80.0895L81.5208 18.8857H88.1185L89.5442 22.4526H93.1376ZM86.8984 15.7947H82.7408L84.8141 10.6384L86.8984 15.7947ZM109.498 22.4526V6.54738H106.1V16.3415L98.7876 6.54738H95.625V22.4526H99.01V12.3411L106.566 22.4526H109.498ZM127.216 19.8858L125.034 17.6363C123.808 18.7695 122.716 19.4976 120.932 19.4976C118.258 19.4976 116.407 17.2311 116.407 14.5V14.4547C116.407 11.7292 118.303 9.50234 120.932 9.50234C122.491 9.50234 123.711 10.1823 124.923 11.2957L127.099 8.7289C125.651 7.2755 123.892 6.2754 120.949 6.2754C116.157 6.2754 112.814 9.97831 112.814 14.4915V14.5368C112.814 19.1038 116.224 22.7161 120.815 22.7161C123.819 22.7246 125.601 21.6338 127.204 19.8858H127.216ZM141.862 22.4526V19.3362H133.38V15.9902H140.736V12.8738H133.38V9.661H141.739V6.54455H129.97V22.4498L141.862 22.4526Z" fill="#B6B3EB"/>
<mask id="mask0_2_8104" style="mask-type:luminance" maskUnits="userSpaceOnUse" x="256" y="0" width="64" height="26">
<path d="M256.017 0V5.33555H259.544V20.5065H256.113V25.7778H268.387V20.5065H264.86V5.33555H268.291V0H256.017ZM290.952 0.0642837V5.33555H294.48V20.5065H291.048V25.7778H299.795V11.1108L305.008 25.7726L305.113 25.7752L310.232 11.1108V25.7778H319.075V20.5065H315.547V5.33555H318.979V0.0642837H309.121L305.039 11.8211L300.906 0.0642837H290.952Z" fill="white"/>
<path d="M270.031 0.0651703V5.33643H273.558V13.6933H287.135V12.0909C287.135 12.0909 288.271 11.1882 288.633 10.3316L289.36 8.66955C289.36 8.66955 289.697 7.73923 289.697 6.90785L289.552 5.24579C289.552 5.24579 289.324 3.89179 288.926 3.48905L287.522 1.82442C287.522 1.82442 285.735 0.0651703 283.369 0.0651703H270.031ZM278.873 5.33643H284.044V10.222H278.873V5.33643Z" fill="white"/>
<path d="M270.031 25.7778V20.5065H273.558V12.1497H287.135V13.7521C287.135 13.7521 288.271 14.6548 288.633 15.5114L289.36 17.1734C289.36 17.1734 289.697 18.1037 289.697 18.9351L289.552 20.5972C289.552 20.5972 289.324 21.9512 288.926 22.3539L287.522 24.0185C287.522 24.0185 285.735 25.7778 283.369 25.7778H270.031ZM278.873 20.5065H284.044V15.621H278.873V20.5065Z" fill="white"/>
</mask>
<g mask="url(#mask0_2_8104)">
<path d="M256.017 0.943893H320.967V4.36584H256.017M256.017 7.7878H317.499V11.2104H256.017V14.6317H317.499V18.053H256.017M256.017 21.4756H320.967V24.8982H256.017" fill="#B6B3EB"/>
<path d="M256.017 0.943893H320.967V4.36584H256.017M256.017 7.7878H317.499V11.2104H256.017V14.6317H317.499V18.053H256.017M256.017 21.4756H320.967V24.8982H256.017" stroke="#B6B3EB" stroke-width="25.2648"/>
</g>
<path fill-rule="evenodd" clip-rule="evenodd" d="M466.255 25.4078H470.179V14.2966H472.286C477.808 14.2966 485.148 13.8514 485.148 7.40723C485.148 0.888555 478.245 0.369967 472.722 0.369967H461.677V1.03655C465.601 1.48111 466.255 2.07429 466.255 4.36992V25.4078ZM470.179 4.36986C470.179 2.1477 470.396 1.8517 474.103 1.8517C478.172 1.8517 480.642 3.7034 480.642 7.40723C480.642 12.2223 476.428 12.8889 472.141 12.8889H470.179V4.36986ZM489.363 4.81448C489.363 1.77767 488.708 1.55576 484.784 1.03655V0.369967H493.94L508.255 20.7413H508.327V0.369967H510.726V25.4078H507.237L491.833 3.62999H491.76V25.4078H489.363V4.81448ZM536.449 24.7406C534.269 25.3338 532.162 25.7778 527.874 25.7778C519.3 25.7778 514.649 19.6302 514.649 12.0737C514.649 5.33307 517.411 0 526.785 0C533.688 0 536.159 2.96222 536.449 5.48107H532.017C531.799 4.29596 530.999 1.70314 526.494 1.70314C521.626 1.70314 519.083 5.40766 519.083 11.1112C519.083 16.3708 520.39 24.1487 530.418 24.1487C533.106 24.1487 535.941 23.3335 536.449 23.1855V24.7406Z" fill="#B6B3EB"/>
<path fill-rule="evenodd" clip-rule="evenodd" d="M452.12 14.6693H449.277C449.396 14.3678 449.337 13.9457 449.1 13.4623L447.501 10.7462L444.836 5.9764C444.836 5.9764 443.83 4.0447 442.349 2.89798C443.297 3.26028 455.259 10.3834 455.259 10.3834C457.213 11.5909 458.93 14.609 452.12 14.6693ZM443.119 22.3366C441.164 23.4833 437.67 23.4833 441.046 17.4471C441.638 16.42 442.467 14.9115 442.467 14.9115C442.704 15.213 443.06 15.3939 443.592 15.3939H452.12C452.12 15.3939 454.252 15.4542 455.97 14.7306C455.2 15.3336 443.119 22.3366 443.119 22.3366ZM439.033 5.67438C439.033 3.38089 440.809 0.30151 444.244 6.27836C444.836 7.36531 445.665 8.81404 445.665 8.81404C445.31 8.87387 445.014 9.11606 444.718 9.59897L443.178 12.3758L440.454 17.0843C440.454 17.0843 439.329 18.9557 439.092 20.8884C438.973 19.8009 439.033 5.67438 439.033 5.67438ZM445.843 0C438.855 0 433.229 5.73517 433.229 12.8587C433.229 19.9819 438.855 25.7778 445.843 25.7778C452.831 25.7778 458.516 19.9819 458.516 12.8587C458.516 5.73517 452.831 0 445.843 0Z" fill="#B6B3EB"/>
<path d="M456.039 24.3286H456.256C456.483 24.3286 456.627 24.2022 456.627 24.0104C456.627 23.7946 456.473 23.6998 456.249 23.6968C456.146 23.6968 456.073 23.7072 456.039 23.717V24.3286ZM455.827 23.5659C455.934 23.5431 456.088 23.5303 456.234 23.5303C456.461 23.5303 456.607 23.5728 456.71 23.6677C456.793 23.7418 456.84 23.8564 456.84 23.9853C456.84 24.2071 456.703 24.3538 456.53 24.4136V24.421C456.656 24.4655 456.732 24.585 456.771 24.7589C456.825 24.9926 456.864 25.1541 456.898 25.2188H456.678C456.651 25.1694 456.615 25.0271 456.569 24.8187C456.52 24.587 456.431 24.5005 456.239 24.4926H456.039V25.2188H455.827V23.5659Z" fill="#B6B3EB"/>
<path d="M455.149 24.3836C455.151 25.0377 455.67 25.5657 456.311 25.5667C456.953 25.5657 457.47 25.0376 457.472 24.3836C457.47 23.7305 456.953 23.2029 456.311 23.2015C455.67 23.2029 455.151 23.7305 455.149 24.3836ZM454.946 24.3836C454.946 23.6159 455.556 22.9935 456.311 22.9935C457.065 22.9935 457.677 23.6159 457.677 24.3836C457.677 25.1528 457.065 25.7762 456.311 25.7762C455.556 25.7762 454.946 25.1528 454.946 24.3836Z" fill="#B6B3EB"/>
<mask id="mask1_2_8104" style="mask-type:luminance" maskUnits="userSpaceOnUse" x="650" y="3" width="26" height="26">
<path d="M666.1 24.3017C667.76 24.2808 669.336 24.0331 670.731 23.5555C671.082 23.4348 671.417 23.3012 671.735 23.1569C671.346 24.1229 670.776 24.9287 670.033 25.5276C668.567 26.6279 666.838 27.3827 664.96 27.6707C665.429 26.8433 665.808 25.6741 666.1 24.3017ZM658.285 26.6487C658.25 26.6193 658.213 26.592 658.171 26.5719C657.518 26.2472 657.254 24.7628 657.594 22.4926C658.849 23.0678 660.216 23.5239 661.652 23.8363C662.741 24.0733 663.826 24.2198 664.886 24.2765C664.366 26.5805 663.7 27.7906 663.258 27.7906C663.23 27.7906 663.202 27.7956 663.176 27.8C661.426 27.7877 659.767 27.3777 658.285 26.6487ZM652.221 19.3096C652.121 18.92 652.057 18.5215 652.032 18.1195C652.425 18.6898 652.903 19.2457 653.473 19.7829C654.334 20.593 655.356 21.3183 656.494 21.9403C656.262 23.2661 656.196 24.4676 656.343 25.4357C654.381 23.9232 652.912 21.7823 652.221 19.3096ZM666.84 16.09C666.84 15.6217 666.833 15.1513 666.82 14.683C668.283 14.5839 669.638 14.1961 670.747 13.5462C671.774 15.6174 672.325 17.8028 672.321 19.8655C672.32 20.463 672.269 21.0311 672.176 21.5676C671.648 21.8972 671.04 22.183 670.356 22.4186C669.141 22.8351 667.773 23.0621 666.323 23.1002C666.672 20.9693 666.84 18.4952 666.84 16.09ZM661.899 22.6649C660.442 22.3468 659.066 21.8749 657.819 21.2781C658.229 19.4008 658.991 17.1263 660.198 14.6012C660.374 14.2356 660.553 13.8758 660.735 13.5239C661.58 13.9103 662.499 14.2169 663.463 14.4266C664.195 14.5868 664.928 14.6737 665.644 14.6988C665.658 15.1484 665.663 15.6117 665.663 16.09C665.663 18.9131 665.442 21.2566 665.122 23.0879C664.071 23.0413 662.988 22.9012 661.899 22.6649ZM654.272 18.9031C653.273 17.9623 652.586 16.9654 652.236 15.9758C652.514 14.8669 653.051 13.7537 653.84 12.6872C654.589 11.676 655.521 10.7653 656.59 9.98253C656.898 10.5506 657.33 11.105 657.881 11.6308C658.403 12.1299 659.013 12.5824 659.688 12.9781C659.501 13.3409 659.319 13.7067 659.143 14.0755C658.1 16.2551 657.248 18.5943 656.748 20.7158C655.818 20.1822 654.984 19.5746 654.272 18.9031ZM666.041 7.7619C667.379 8.77669 668.604 10.0859 669.629 11.6171C669.824 11.9073 670.007 12.2024 670.181 12.5005C669.242 13.0542 668.053 13.3853 666.771 13.4779C666.663 11.4088 666.423 9.41803 666.041 7.7619ZM663.71 13.2546C662.859 13.07 662.05 12.8036 661.304 12.4696C662.402 10.5125 663.602 8.81117 664.786 7.54645C665.156 9.03021 665.466 11.0253 665.597 13.4988C664.973 13.4722 664.339 13.3925 663.71 13.2546ZM658.684 10.756C658.198 10.2921 657.828 9.80801 657.58 9.3218C658.682 8.64599 659.901 8.09514 661.2 7.69655C661.973 7.45955 662.755 7.28431 663.535 7.16294C662.409 8.4492 661.285 10.0831 660.254 11.9288C659.665 11.5819 659.137 11.1891 658.684 10.756ZM656.155 6.93599C656.139 6.99632 656.122 7.05808 656.109 7.12128C655.99 7.68649 656.004 8.26607 656.143 8.84061C654.878 9.73044 653.778 10.7826 652.901 11.9647C652.634 12.3245 652.395 12.6922 652.179 13.0621C652.831 10.6073 654.248 8.47147 656.155 6.93599ZM657.258 7.37121C657.389 6.74926 657.756 6.19339 658.323 5.73375C659.696 5.31577 661.293 5.41631 662.972 6.04257C662.265 6.16753 661.559 6.33415 660.862 6.54889C659.565 6.94533 658.341 7.48827 657.219 8.14757C657.194 7.88543 657.206 7.62545 657.258 7.37121ZM666.799 5.79192C667.203 5.52548 667.575 5.34306 667.886 5.26765C668.475 5.50824 669.06 5.81634 669.615 6.2056C668.725 5.97865 667.779 5.84076 666.799 5.79192ZM664.818 4.50853C665.295 4.56311 665.805 4.64642 666.328 4.77066C666.001 4.95021 665.661 5.17428 665.315 5.4436C665.162 5.08954 664.996 4.77785 664.818 4.50853ZM663.544 4.97894C663.012 4.77138 662.487 4.61051 661.968 4.4956C662.384 4.4482 662.804 4.42091 663.233 4.42091C663.433 4.42306 663.679 4.66868 663.936 5.1434C663.805 5.08667 663.675 5.03065 663.544 4.97894ZM650.604 16.1108C650.604 17.336 650.777 18.5203 651.092 19.6443C651.111 19.7197 651.129 19.7951 651.151 19.8705C651.155 19.8841 651.162 19.8971 651.167 19.9121C652.762 25.17 657.575 29 663.249 29C665.874 29 668.313 28.1799 670.337 26.7794C670.357 26.7672 670.378 26.7571 670.396 26.7442C670.516 26.6609 670.632 26.5733 670.745 26.4814C673.072 24.7297 674.789 22.1852 675.513 19.2414C675.554 19.1063 675.59 18.9684 675.619 18.8291C675.626 18.7954 675.628 18.7638 675.63 18.7307C675.802 17.884 675.892 17.0078 675.892 16.1115C675.892 14.3721 675.559 12.6836 674.898 11.095C674.772 10.7898 674.427 10.6468 674.128 10.7768C673.828 10.9047 673.689 11.2573 673.815 11.5618C674.413 13.0018 674.716 14.5329 674.716 16.1115C674.716 17.0789 674.598 18.0183 674.379 18.9182C674.205 19.4855 673.9 20.0105 673.478 20.4874C673.489 20.2842 673.495 20.0788 673.496 19.8683C673.501 17.5687 672.876 15.1398 671.72 12.8567C672.568 12.1141 673.11 11.1963 673.295 10.17C673.354 9.84463 673.143 9.53222 672.824 9.4719C672.504 9.41085 672.197 9.62631 672.138 9.95236C672.016 10.631 671.67 11.2537 671.129 11.7823C670.96 11.4986 670.786 11.2178 670.6 10.9413C669.568 9.39864 668.342 8.06426 667 6.99919C668.771 7.11841 670.409 7.55578 671.727 8.307C671.934 8.42694 672.209 8.42335 672.402 8.25888C672.652 8.04702 672.686 7.66782 672.476 7.41358C670.582 4.71249 667.305 3.22226 663.247 3.22226C656.277 3.22154 650.604 9.00364 650.604 16.1108Z" fill="white"/>
</mask>
<g mask="url(#mask1_2_8104)">
<path d="M650.604 3.22165H675.892V29.0001H650.604V3.22165Z" fill="#B6B3EB"/>
</g>
<path d="M678.676 8.96843H685.06V10.3036H682.715V16.9999H681.022V10.3036H678.676L678.676 8.96843ZM685.956 16.9993V8.96783H687.648V12.1379H690.628V8.96795H692.34V16.9993H690.649V13.4723H687.648V16.9993H685.956ZM693.719 8.96843H699.001V10.3036H695.412V12.1838H698.773V13.5182H695.412V15.6656H699.122V17H693.72L693.719 8.96843ZM707.405 8.96843H709.314L710.689 15.0092H710.71L711.977 8.96843H713.591L711.584 16.9999H709.708L708.29 10.8809H708.268L706.739 16.9999H704.82L702.899 8.96843H704.646L705.856 15.0092H705.88L707.405 8.96843ZM714.167 12.9845C714.167 10.6152 715.345 8.80029 717.952 8.80029C720.559 8.80029 721.738 10.6145 721.738 12.9845C721.738 15.3545 720.559 17.1658 717.952 17.1658C715.343 17.1658 714.167 15.3536 714.167 12.9845ZM715.965 12.9845C715.965 14.362 716.282 15.9197 717.951 15.9197C719.621 15.9197 719.938 14.362 719.938 12.9845C719.938 11.6041 719.621 10.0457 717.951 10.0457C716.282 10.0457 715.965 11.6049 715.965 12.9845ZM724.544 16.9993H722.851V8.96783H726.2C727.555 8.97872 728.94 9.42316 728.94 11.0599C728.94 12.1048 728.275 12.7957 727.304 13.0061V13.0279C728.603 13.1722 728.603 13.9838 728.744 15.097C728.822 15.609 728.886 16.5549 729.202 16.998H727.336C727.195 16.2869 727.118 15.5638 727.042 14.8398C726.998 14.3958 726.888 13.784 726.333 13.7624H724.544V16.9979L724.544 16.9993ZM724.544 12.4273H725.96C726.704 12.4138 727.14 12.038 727.14 11.3249C727.14 10.6139 726.704 10.3129 725.96 10.3022H724.544V12.4273ZM730.237 16.9993V8.96783H731.929V15.6649H735.345V16.9993H730.237ZM736.259 8.96843H738.944C741.398 8.94677 742.926 10.1915 742.926 12.9846C742.926 15.7762 741.398 17.0216 738.944 16.9994H736.259V8.96843ZM737.95 15.6648H738.823C740.832 15.6866 741.127 14.2623 741.127 12.9845C741.127 11.7046 740.832 10.2812 738.823 10.3034H737.95V15.6648ZM747.211 16.9993V8.96783H750.169C751.576 8.87879 753.017 9.4806 753.017 11.0485C753.017 11.9268 752.415 12.5395 751.631 12.8052V12.827C752.624 13.0389 753.365 13.7398 753.365 14.9176C753.365 16.5084 751.399 17.0881 750.19 16.9982L747.211 16.9993ZM750.223 15.6642C751.02 15.6642 751.565 15.5193 751.565 14.5963C751.565 13.6734 751.02 13.5284 750.223 13.5284H748.901V15.665L750.223 15.6642ZM750.223 12.1947C750.932 12.1947 751.324 11.8938 751.324 11.2488C751.324 10.6025 750.932 10.3037 750.223 10.3037H748.901V12.1954L750.223 12.1947ZM753.89 16.9993L756.739 8.96783H758.747L761.485 16.9993H759.784L759.216 15.2972H756.095L755.505 16.9993H753.89ZM758.79 13.9629L757.71 10.5364H757.689L756.533 13.9629H758.79ZM767.073 16.9993L763.962 10.3245L763.941 10.3463V16.9981H762.36V8.96663H764.868L767.871 15.2853L767.892 15.2609V8.96507H769.475V16.9972L767.073 16.9993ZM772.543 12.4388H772.564L775.184 8.96783H777.158L774.266 12.561L777.41 16.9994H775.304L772.565 12.9056H772.544V16.9994H770.853V8.96771H772.544L772.543 12.4388Z" fill="#B6B3EB"/>
<path fill-rule="evenodd" clip-rule="evenodd" d="M952.333 13.3191C952.333 8.91379 950.24 5.43774 946.24 5.43774C942.222 5.43774 939.792 8.91379 939.792 13.2847C939.792 18.4643 942.661 21.0799 946.78 21.0799C948.789 21.0799 950.308 20.6153 951.456 19.9614V16.5198C950.308 17.1049 948.991 17.4662 947.32 17.4662C945.683 17.4662 944.231 16.8812 944.045 14.8506H952.3C952.3 14.6269 952.333 13.7321 952.333 13.3191ZM943.995 11.6843C943.995 9.73978 945.159 8.93099 946.223 8.93099C947.253 8.93099 948.35 9.73978 948.35 11.6843H943.995Z" fill="#B6B3EB"/>
<path fill-rule="evenodd" clip-rule="evenodd" d="M933.275 5.43774C931.621 5.43774 930.558 6.22932 929.967 6.77998L929.747 5.71307H926.034V25.7777L930.254 24.8657L930.271 19.9958C930.878 20.4432 931.773 21.0799 933.258 21.0799C936.28 21.0799 939.031 18.602 939.031 13.147C939.015 8.15663 936.229 5.43774 933.275 5.43774ZM932.262 17.2941C931.267 17.2941 930.676 16.9328 930.271 16.4854L930.254 10.1011C930.693 9.60211 931.3 9.25795 932.262 9.25795C933.799 9.25795 934.862 11.0132 934.862 13.2674C934.862 15.5733 933.815 17.2941 932.262 17.2941Z" fill="#B6B3EB"/>
<path fill-rule="evenodd" clip-rule="evenodd" d="M924.464 0L920.228 0.912031V4.42249L924.464 3.49325V0Z" fill="#B6B3EB"/>
<path fill-rule="evenodd" clip-rule="evenodd" d="M920.228 5.73032H924.464V20.7874H920.228V5.73032Z" fill="#B6B3EB"/>
<path fill-rule="evenodd" clip-rule="evenodd" d="M915.686 7.0037L915.416 5.7303H911.77V20.7874H915.99V10.583C916.986 9.25797 918.674 9.49888 919.197 9.68817V5.7303C918.657 5.5238 916.682 5.14522 915.686 7.0037Z" fill="#B6B3EB"/>
<path fill-rule="evenodd" clip-rule="evenodd" d="M907.247 1.99614L903.128 2.89096L903.111 16.6747C903.111 19.2215 904.985 21.0972 907.483 21.0972C908.867 21.0972 909.88 20.839 910.437 20.5293V17.036C909.897 17.2598 907.23 18.0513 907.23 15.5045V9.39564H910.437V5.7303H907.23L907.247 1.99614Z" fill="#B6B3EB"/>
<path fill-rule="evenodd" clip-rule="evenodd" d="M895.836 10.1011C895.836 9.43003 896.376 9.17191 897.27 9.17191C898.553 9.17191 900.174 9.56769 901.457 10.2732V6.22932C900.056 5.66145 898.672 5.43774 897.27 5.43774C893.844 5.43774 891.565 7.26181 891.565 10.3076C891.565 15.0571 897.979 14.2999 897.979 16.3477C897.979 17.1393 897.304 17.3974 896.359 17.3974C894.958 17.3974 893.169 16.8123 891.751 16.0207V20.1163C893.32 20.8046 894.907 21.0971 896.359 21.0971C899.87 21.0971 902.284 19.3247 902.284 16.2444C902.267 11.1164 895.836 12.0285 895.836 10.1011Z" fill="#B6B3EB"/>
</svg>
