<svg width="71" height="70" viewBox="0 0 71 70" fill="none" xmlns="http://www.w3.org/2000/svg">
<path d="M64.2843 27.5086H6.709C3.98124 27.5086 2.8122 24.5002 4.95544 23.0699L33.7431 3.9835C34.2746 3.66693 34.88 3.5 35.4966 3.5C36.1133 3.5 36.7187 3.66693 37.2502 3.9835L66.0378 23.0699C68.1811 24.5002 67.012 27.5086 64.2843 27.5086Z" stroke="#5D55FF" stroke-width="4" stroke-linecap="round" stroke-linejoin="round"/>
<path d="M64.7215 54.634H6.26949C4.9244 54.634 3.83398 55.7381 3.83398 57.1V64.4978C3.83398 65.8597 4.9244 66.9638 6.26949 66.9638H64.7215C66.0666 66.9638 67.157 65.8597 67.157 64.4978V57.1C67.157 55.7381 66.0666 54.634 64.7215 54.634Z" stroke="#5D55FF" stroke-width="4" stroke-linecap="round" stroke-linejoin="round"/>
<path d="M11.1406 27.5085V54.6339M23.3181 27.5085V54.6339M35.4956 27.5085V54.6339M47.6731 27.5085V54.6339M59.8506 27.5085V54.6339" stroke="#5D55FF" stroke-width="4" stroke-linecap="round" stroke-linejoin="round"/>
</svg>
