<svg width="71" height="70" viewBox="0 0 71 70" fill="none" xmlns="http://www.w3.org/2000/svg">
<path d="M13.2562 15.5057V38.5975C13.2562 51.1685 23.2205 61.357 35.5103 61.357C47.8001 61.357 57.7644 51.1685 57.7644 38.5975V15.5181L35.3766 7.99164L13.2562 15.5057ZM35.3704 3.5L61.9366 12.4274V38.5975C61.9366 53.523 50.1038 65.625 35.5103 65.625C20.9168 65.625 9.08398 53.523 9.08398 38.5975V12.4274L35.3704 3.5ZM49.109 23.644C48.906 23.4578 48.6676 23.3143 48.408 23.2221C48.1483 23.1299 47.8727 23.0909 47.5977 23.1074C47.3226 23.1239 47.0537 23.1956 46.807 23.3183C46.5603 23.4409 46.3408 23.6119 46.1616 23.8211L32.7433 39.256L24.0755 29.6733C23.8922 29.4681 23.6695 29.3019 23.4207 29.1845C23.1718 29.0672 22.9018 29.001 22.6269 28.99C22.3519 28.979 22.0775 29.0233 21.82 29.1204C21.5626 29.2176 21.3273 29.3654 21.1282 29.5552C20.7205 29.9445 20.4806 30.477 20.4591 31.04C20.4376 31.603 20.6363 32.1522 21.0131 32.5714L31.2417 43.8781C31.4365 44.097 31.676 44.2716 31.944 44.3901C32.212 44.5087 32.5023 44.5686 32.7955 44.5656C33.0886 44.5627 33.3776 44.497 33.6432 44.3731C33.9088 44.2491 34.1447 44.0698 34.3351 43.8471L49.28 26.6571C49.6488 26.2311 49.8372 25.6783 49.8053 25.116C49.7733 24.5536 49.5236 24.0257 49.109 23.644Z" fill="#1D1C31"/>
</svg>
