<svg width="136" height="40" viewBox="0 0 136 40" fill="none" xmlns="http://www.w3.org/2000/svg">
<rect x="0.833984" y="0.5" width="134" height="39" rx="7.5" fill="black"/>
<rect x="0.833984" y="0.5" width="134" height="39" rx="7.5" stroke="#A6A6A6"/>
<path d="M68.471 21.752C66.1189 21.752 64.202 23.54 64.202 26.005C64.202 28.454 66.1189 30.258 68.471 30.258C70.823 30.258 72.7399 28.454 72.7399 26.005C72.7399 23.54 70.823 21.752 68.471 21.752ZM68.471 28.583C67.1819 28.583 66.07 27.52 66.07 26.005C66.07 24.474 67.1819 23.427 68.471 23.427C69.76 23.427 70.871 24.474 70.871 26.005C70.871 27.519 69.76 28.583 68.471 28.583ZM59.1569 21.752C56.805 21.752 54.888 23.54 54.888 26.005C54.888 28.454 56.805 30.258 59.1569 30.258C61.5089 30.258 63.4259 28.454 63.4259 26.005C63.4269 23.54 61.5089 21.752 59.1569 21.752ZM59.1569 28.583C57.868 28.583 56.757 27.52 56.757 26.005C56.757 24.474 57.8689 23.427 59.1569 23.427C60.4459 23.427 61.5569 24.474 61.5569 26.005C61.5579 27.519 60.4459 28.583 59.1569 28.583ZM48.0789 24.861H52.3969C52.268 25.876 51.93 26.617 51.4139 27.133C50.7859 27.761 49.803 28.454 48.0789 28.454C45.421 28.454 43.3429 26.311 43.3429 23.653C43.3429 20.995 45.421 18.852 48.0789 18.852C49.513 18.852 50.56 19.416 51.333 20.141L52.6059 18.868C51.527 17.837 50.0929 17.047 48.0789 17.047C44.438 17.047 41.377 20.011 41.377 23.652C41.377 27.293 44.438 30.257 48.0789 30.257C50.0439 30.257 51.527 29.613 52.687 28.404C53.879 27.212 54.25 25.536 54.25 24.183C54.25 23.764 54.218 23.377 54.153 23.055H48.0789V24.861ZM93.3869 24.458C93.033 23.507 91.9529 21.751 89.7459 21.751C87.555 21.751 85.7349 23.475 85.7349 26.004C85.7349 28.388 87.5389 30.257 89.9559 30.257C91.905 30.257 93.033 29.065 93.4999 28.372L92.0499 27.405C91.5669 28.114 90.906 28.581 89.9559 28.581C89.005 28.581 88.3289 28.146 87.8939 27.292L93.5809 24.94L93.3869 24.458ZM87.5869 25.876C87.5389 24.233 88.8599 23.395 89.8099 23.395C90.5509 23.395 91.1789 23.765 91.3889 24.297L87.5869 25.876ZM82.9629 30H84.8319V17.499H82.9629V30ZM79.9019 22.702H79.8379C79.4189 22.203 78.614 21.751 77.5989 21.751C75.4719 21.751 73.523 23.62 73.523 26.02C73.523 28.404 75.4719 30.257 77.5989 30.257C78.614 30.257 79.4189 29.806 79.8379 29.29H79.9019V29.902C79.9019 31.529 79.0319 32.399 77.6299 32.399C76.4859 32.399 75.7769 31.577 75.4869 30.885L73.86 31.562C74.327 32.69 75.5679 34.075 77.6299 34.075C79.8209 34.075 81.6739 32.786 81.6739 29.645V22.009H79.9019V22.702ZM77.7599 28.583C76.471 28.583 75.3919 27.504 75.3919 26.021C75.3919 24.523 76.471 23.427 77.7599 23.427C79.033 23.427 80.0309 24.522 80.0309 26.021C80.0309 27.503 79.033 28.583 77.7599 28.583ZM102.141 17.499H97.6699V30H99.5349V25.264H102.14C104.208 25.264 106.241 23.767 106.241 21.382C106.241 18.997 104.209 17.499 102.141 17.499ZM102.189 23.524H99.5349V19.239H102.189C103.584 19.239 104.376 20.394 104.376 21.382C104.376 22.35 103.584 23.524 102.189 23.524ZM113.721 21.729C112.37 21.729 110.971 22.324 110.392 23.643L112.049 24.335C112.403 23.643 113.062 23.418 113.754 23.418C114.719 23.418 115.7 23.997 115.716 25.026V25.155C115.378 24.962 114.654 24.672 113.77 24.672C111.985 24.672 110.167 25.653 110.167 27.487C110.167 29.16 111.631 30.237 113.271 30.237C114.526 30.237 115.217 29.674 115.651 29.015H115.715V29.98H117.516V25.187C117.516 22.967 115.86 21.729 113.721 21.729ZM113.495 28.58C112.884 28.58 112.031 28.274 112.031 27.519C112.031 26.554 113.093 26.184 114.009 26.184C114.829 26.184 115.215 26.361 115.714 26.602C115.57 27.76 114.573 28.58 113.495 28.58ZM124.078 22.002L121.939 27.422H121.875L119.656 22.002H117.646L120.975 29.577L119.077 33.791H121.023L126.154 22.002H124.078ZM107.271 30H109.137V17.499H107.271V30Z" fill="white"/>
<path d="M47.7099 9.79097H44.8019V10.512H46.9809C46.9219 11.098 46.6869 11.559 46.2939 11.894C45.8999 12.229 45.3969 12.397 44.8019 12.397C44.1479 12.397 43.5949 12.171 43.1429 11.718C42.6989 11.257 42.4719 10.688 42.4719 9.99997C42.4719 9.31297 42.6989 8.74297 43.1429 8.28197C43.5949 7.82997 44.1479 7.60397 44.8019 7.60397C45.1369 7.60397 45.4559 7.66197 45.7489 7.78797C46.042 7.91397 46.2769 8.08997 46.4609 8.31597L47.0139 7.76297C46.7629 7.47797 46.4439 7.25997 46.0509 7.10097C45.6569 6.94197 45.2459 6.86597 44.8019 6.86597C43.9299 6.86597 43.1929 7.16797 42.5899 7.77097C41.9859 8.37497 41.6849 9.11997 41.6849 9.99997C41.6849 10.88 41.9859 11.626 42.5899 12.229C43.1929 12.833 43.9299 13.134 44.8019 13.134C45.7149 13.134 46.4439 12.841 47.0059 12.246C47.5 11.752 47.7519 11.081 47.7519 10.243C47.7519 10.101 47.7349 9.94997 47.7099 9.79097Z" fill="white"/>
<path d="M48.858 6.99997V13H52.361V12.263H49.629V10.361H52.092V9.63997H49.629V7.73797H52.361V6.99997H48.858Z" fill="white"/>
<path d="M57.2869 7.73797V6.99997H53.164V7.73797H54.84V13H55.611V7.73797H57.2869Z" fill="white"/>
<path d="M61.0419 6.99997H60.2709V13H61.0419V6.99997Z" fill="white"/>
<path d="M66.1369 7.73797V6.99997H62.0139V7.73797H63.6899V13H64.4609V7.73797H66.1369Z" fill="white"/>
<path d="M73.939 7.77997C73.344 7.16797 72.6149 6.86597 71.7429 6.86597C70.8719 6.86597 70.1419 7.16797 69.5469 7.77097C68.9519 8.36597 68.6589 9.11197 68.6589 9.99997C68.6589 10.889 68.9519 11.634 69.5469 12.229C70.1419 12.833 70.8719 13.134 71.7429 13.134C72.6059 13.134 73.344 12.833 73.939 12.229C74.534 11.634 74.8269 10.889 74.8269 9.99997C74.8269 9.11997 74.534 8.37497 73.939 7.77997ZM70.1009 8.28197C70.5449 7.82997 71.0889 7.60397 71.7429 7.60397C72.3969 7.60397 72.9409 7.82997 73.3769 8.28197C73.8209 8.72697 74.039 9.30497 74.039 9.99997C74.039 10.696 73.8209 11.274 73.3769 11.718C72.9409 12.171 72.3969 12.397 71.7429 12.397C71.0889 12.397 70.5449 12.171 70.1009 11.718C69.6649 11.266 69.4469 10.696 69.4469 9.99997C69.4469 9.30497 69.6649 8.73497 70.1009 8.28197Z" fill="white"/>
<path d="M76.6789 9.26297L76.6459 8.10597H76.6789L79.7299 13H80.5339V6.99997H79.7629V10.512L79.7969 11.668H79.7629L76.8469 6.99997H75.9089V13H76.6789V9.26297Z" fill="white"/>
<path d="M21.0513 19.4243L10.4043 30.7243C10.4053 30.7263 10.4053 30.7283 10.4063 30.7303C10.7323 31.9583 11.8533 32.8613 13.1833 32.8613C13.7153 32.8613 14.2143 32.7173 14.6423 32.4653L14.6763 32.4453L26.6603 25.5303L21.0513 19.4243Z" fill="#EB4335"/>
<path d="M31.8235 17.5004L31.8135 17.4934L26.6395 14.4934L20.8105 19.6804L26.6595 25.5284L31.8065 22.5594C32.7085 22.0724 33.3205 21.1214 33.3205 20.0244C33.3205 18.9354 32.7165 17.9884 31.8235 17.5004Z" fill="#FABC13"/>
<path d="M10.4046 9.27734C10.3406 9.51334 10.3066 9.76034 10.3066 10.0173V29.9843C10.3066 30.2413 10.3393 30.4893 10.4043 30.7243L21.4176 19.7133L10.4046 9.27734Z" fill="#547DBF"/>
<path d="M21.1293 20.0004L26.6403 14.4914L14.6693 7.55138C14.2343 7.29038 13.7273 7.14038 13.1833 7.14038C11.8533 7.14038 10.7313 8.04538 10.4043 9.27438L10.4046 9.27734L21.1293 20.0004Z" fill="#30A851"/>
</svg>
