<svg width="25" height="24" viewBox="0 0 25 24" fill="none" xmlns="http://www.w3.org/2000/svg">
<path d="M4.33398 18H20.334C20.884 18 21.334 17.55 21.334 17C21.334 16.45 20.884 16 20.334 16H4.33398C3.78398 16 3.33398 16.45 3.33398 17C3.33398 17.55 3.78398 18 4.33398 18ZM4.33398 13H20.334C20.884 13 21.334 12.55 21.334 12C21.334 11.45 20.884 11 20.334 11H4.33398C3.78398 11 3.33398 11.45 3.33398 12C3.33398 12.55 3.78398 13 4.33398 13ZM3.33398 7C3.33398 7.55 3.78398 8 4.33398 8H20.334C20.884 8 21.334 7.55 21.334 7C21.334 6.45 20.884 6 20.334 6H4.33398C3.78398 6 3.33398 6.45 3.33398 7Z" fill="white"/>
</svg>
