<svg width="21" height="20" viewBox="0 0 21 20" fill="none" xmlns="http://www.w3.org/2000/svg">
<path fill-rule="evenodd" clip-rule="evenodd" d="M5.33398 0.833313C2.57256 0.833313 0.333984 3.07189 0.333984 5.83331V14.1666C0.333984 16.9281 2.57256 19.1666 5.33398 19.1666H15.334C18.0954 19.1666 20.334 16.9281 20.334 14.1666V5.83331C20.334 3.07189 18.0954 0.833313 15.334 0.833313H5.33398ZM16.334 5.41665C16.8863 5.41665 17.334 5.00624 17.334 4.49998C17.334 3.99372 16.8863 3.58331 16.334 3.58331C15.7817 3.58331 15.334 3.99372 15.334 4.49998C15.334 5.00624 15.7817 5.41665 16.334 5.41665ZM15.334 9.99998C15.334 12.5313 13.0954 14.5833 10.334 14.5833C7.57256 14.5833 5.33398 12.5313 5.33398 9.99998C5.33398 7.46867 7.57256 5.41665 10.334 5.41665C13.0954 5.41665 15.334 7.46867 15.334 9.99998ZM10.334 12.75C11.9908 12.75 13.334 11.5188 13.334 9.99998C13.334 8.4812 11.9908 7.24998 10.334 7.24998C8.67713 7.24998 7.33398 8.4812 7.33398 9.99998C7.33398 11.5188 8.67713 12.75 10.334 12.75Z" fill="#B6B3EB"/>
</svg>
