<svg width="25" height="22" viewBox="0 0 25 22" fill="none" xmlns="http://www.w3.org/2000/svg">
<path d="M15.6203 3.66669C13.5164 3.66669 11.8109 5.30831 11.8109 7.33335C11.8109 7.63936 11.8499 7.9366 11.9233 8.22076C9.90034 8.22076 6.85337 7.84584 4.30867 5.50883C3.97028 5.19806 3.34631 5.40584 3.36978 5.84439C3.74691 12.8908 7.039 14.9462 8.73433 15.0741C7.63958 16.0652 6.04933 16.8476 4.44912 17.1987C4.02679 17.2914 3.92246 17.7152 4.33543 17.8383C5.48046 18.1797 7.11939 18.3112 8.00158 18.3334C14.2424 18.3334 19.3148 13.5182 19.4277 7.53712C20.2471 7.04868 20.7719 5.98814 21.0668 5.23685C21.1387 5.05388 20.8115 4.84069 20.6157 4.91543C20.0036 5.14901 19.2265 5.20438 18.5646 5.00668C17.866 4.18851 16.8065 3.66669 15.6203 3.66669Z" fill="#B6B3EB"/>
</svg>
