<svg width="141" height="19" viewBox="0 0 141 19" fill="none" xmlns="http://www.w3.org/2000/svg">
<path d="M14.608 2.4L9.154 15H6.274L0.838 2.4H3.988L7.822 11.4L11.71 2.4H14.608ZM18.6473 5.172C20.1473 5.172 21.2993 5.532 22.1033 6.252C22.9073 6.96 23.3093 8.034 23.3093 9.474V15H20.6813V13.794C20.1533 14.694 19.1693 15.144 17.7293 15.144C16.9853 15.144 16.3373 15.018 15.7853 14.766C15.2453 14.514 14.8313 14.166 14.5433 13.722C14.2553 13.278 14.1113 12.774 14.1113 12.21C14.1113 11.31 14.4473 10.602 15.1193 10.086C15.8033 9.57 16.8533 9.312 18.2693 9.312H20.5013C20.5013 8.7 20.3153 8.232 19.9433 7.908C19.5713 7.572 19.0133 7.404 18.2693 7.404C17.7533 7.404 17.2433 7.488 16.7393 7.656C16.2473 7.812 15.8273 8.028 15.4793 8.304L14.4713 6.342C14.9993 5.97 15.6293 5.682 16.3613 5.478C17.1053 5.274 17.8673 5.172 18.6473 5.172ZM18.4313 13.254C18.9113 13.254 19.3373 13.146 19.7093 12.93C20.0813 12.702 20.3453 12.372 20.5013 11.94V10.95H18.5753C17.4233 10.95 16.8473 11.328 16.8473 12.084C16.8473 12.444 16.9853 12.732 17.2613 12.948C17.5493 13.152 17.9393 13.254 18.4313 13.254ZM30.6362 15.144C29.6042 15.144 28.6742 14.934 27.8462 14.514C27.0302 14.082 26.3882 13.488 25.9202 12.732C25.4642 11.976 25.2362 11.118 25.2362 10.158C25.2362 9.198 25.4642 8.34 25.9202 7.584C26.3882 6.828 27.0302 6.24 27.8462 5.82C28.6742 5.388 29.6042 5.172 30.6362 5.172C31.6562 5.172 32.5442 5.388 33.3002 5.82C34.0682 6.24 34.6262 6.846 34.9742 7.638L32.7962 8.808C32.2922 7.92 31.5662 7.476 30.6182 7.476C29.8862 7.476 29.2802 7.716 28.8002 8.196C28.3202 8.676 28.0802 9.33 28.0802 10.158C28.0802 10.986 28.3202 11.64 28.8002 12.12C29.2802 12.6 29.8862 12.84 30.6182 12.84C31.5782 12.84 32.3042 12.396 32.7962 11.508L34.9742 12.696C34.6262 13.464 34.0682 14.064 33.3002 14.496C32.5442 14.928 31.6562 15.144 30.6362 15.144ZM41.1479 15.144C40.1159 15.144 39.1859 14.934 38.3579 14.514C37.5419 14.082 36.8999 13.488 36.4319 12.732C35.9759 11.976 35.7479 11.118 35.7479 10.158C35.7479 9.198 35.9759 8.34 36.4319 7.584C36.8999 6.828 37.5419 6.24 38.3579 5.82C39.1859 5.388 40.1159 5.172 41.1479 5.172C42.1679 5.172 43.0559 5.388 43.8119 5.82C44.5799 6.24 45.1379 6.846 45.4859 7.638L43.3079 8.808C42.8039 7.92 42.0779 7.476 41.1299 7.476C40.3979 7.476 39.7919 7.716 39.3119 8.196C38.8319 8.676 38.5919 9.33 38.5919 10.158C38.5919 10.986 38.8319 11.64 39.3119 12.12C39.7919 12.6 40.3979 12.84 41.1299 12.84C42.0899 12.84 42.8159 12.396 43.3079 11.508L45.4859 12.696C45.1379 13.464 44.5799 14.064 43.8119 14.496C43.0559 14.928 42.1679 15.144 41.1479 15.144ZM47.1026 5.316H49.9106V15H47.1026V5.316ZM48.5066 3.966C47.9906 3.966 47.5706 3.816 47.2466 3.516C46.9226 3.216 46.7606 2.844 46.7606 2.4C46.7606 1.956 46.9226 1.584 47.2466 1.284C47.5706 0.983999 47.9906 0.833999 48.5066 0.833999C49.0226 0.833999 49.4426 0.977999 49.7666 1.266C50.0906 1.554 50.2526 1.914 50.2526 2.346C50.2526 2.814 50.0906 3.204 49.7666 3.516C49.4426 3.816 49.0226 3.966 48.5066 3.966ZM58.4027 5.172C59.6027 5.172 60.5687 5.532 61.3007 6.252C62.0447 6.972 62.4167 8.04 62.4167 9.456V15H59.6087V9.888C59.6087 9.12 59.4407 8.55 59.1047 8.178C58.7687 7.794 58.2827 7.602 57.6467 7.602C56.9387 7.602 56.3747 7.824 55.9547 8.268C55.5347 8.7 55.3247 9.348 55.3247 10.212V15H52.5167V5.316H55.1987V6.45C55.5707 6.042 56.0327 5.73 56.5847 5.514C57.1367 5.286 57.7427 5.172 58.4027 5.172ZM68.868 5.172C70.368 5.172 71.52 5.532 72.324 6.252C73.128 6.96 73.53 8.034 73.53 9.474V15H70.902V13.794C70.374 14.694 69.39 15.144 67.95 15.144C67.206 15.144 66.558 15.018 66.006 14.766C65.466 14.514 65.052 14.166 64.764 13.722C64.476 13.278 64.332 12.774 64.332 12.21C64.332 11.31 64.668 10.602 65.34 10.086C66.024 9.57 67.074 9.312 68.49 9.312H70.722C70.722 8.7 70.536 8.232 70.164 7.908C69.792 7.572 69.234 7.404 68.49 7.404C67.974 7.404 67.464 7.488 66.96 7.656C66.468 7.812 66.048 8.028 65.7 8.304L64.692 6.342C65.22 5.97 65.85 5.682 66.582 5.478C67.326 5.274 68.088 5.172 68.868 5.172ZM68.652 13.254C69.132 13.254 69.558 13.146 69.93 12.93C70.302 12.702 70.566 12.372 70.722 11.94V10.95H68.796C67.644 10.95 67.068 11.328 67.068 12.084C67.068 12.444 67.206 12.732 67.482 12.948C67.77 13.152 68.16 13.254 68.652 13.254ZM82.3174 14.532C82.0414 14.736 81.6994 14.892 81.2914 15C80.8954 15.096 80.4754 15.144 80.0314 15.144C78.8794 15.144 77.9854 14.85 77.3494 14.262C76.7254 13.674 76.4134 12.81 76.4134 11.67V7.692H74.9194V5.532H76.4134V3.174H79.2214V5.532H81.6334V7.692H79.2214V11.634C79.2214 12.042 79.3234 12.36 79.5274 12.588C79.7434 12.804 80.0434 12.912 80.4274 12.912C80.8714 12.912 81.2494 12.792 81.5614 12.552L82.3174 14.532ZM83.8937 5.316H86.7017V15H83.8937V5.316ZM85.2977 3.966C84.7817 3.966 84.3617 3.816 84.0377 3.516C83.7137 3.216 83.5517 2.844 83.5517 2.4C83.5517 1.956 83.7137 1.584 84.0377 1.284C84.3617 0.983999 84.7817 0.833999 85.2977 0.833999C85.8137 0.833999 86.2337 0.977999 86.5577 1.266C86.8817 1.554 87.0437 1.914 87.0437 2.346C87.0437 2.814 86.8817 3.204 86.5577 3.516C86.2337 3.816 85.8137 3.966 85.2977 3.966ZM93.9157 15.144C92.8957 15.144 91.9777 14.934 91.1617 14.514C90.3577 14.082 89.7277 13.488 89.2717 12.732C88.8157 11.976 88.5877 11.118 88.5877 10.158C88.5877 9.198 88.8157 8.34 89.2717 7.584C89.7277 6.828 90.3577 6.24 91.1617 5.82C91.9777 5.388 92.8957 5.172 93.9157 5.172C94.9357 5.172 95.8477 5.388 96.6517 5.82C97.4557 6.24 98.0857 6.828 98.5417 7.584C98.9977 8.34 99.2257 9.198 99.2257 10.158C99.2257 11.118 98.9977 11.976 98.5417 12.732C98.0857 13.488 97.4557 14.082 96.6517 14.514C95.8477 14.934 94.9357 15.144 93.9157 15.144ZM93.9157 12.84C94.6357 12.84 95.2237 12.6 95.6797 12.12C96.1477 11.628 96.3817 10.974 96.3817 10.158C96.3817 9.342 96.1477 8.694 95.6797 8.214C95.2237 7.722 94.6357 7.476 93.9157 7.476C93.1957 7.476 92.6017 7.722 92.1337 8.214C91.6657 8.694 91.4317 9.342 91.4317 10.158C91.4317 10.974 91.6657 11.628 92.1337 12.12C92.6017 12.6 93.1957 12.84 93.9157 12.84ZM106.989 5.172C108.189 5.172 109.155 5.532 109.887 6.252C110.631 6.972 111.003 8.04 111.003 9.456V15H108.195V9.888C108.195 9.12 108.027 8.55 107.691 8.178C107.355 7.794 106.869 7.602 106.233 7.602C105.525 7.602 104.961 7.824 104.541 8.268C104.121 8.7 103.911 9.348 103.911 10.212V15H101.103V5.316H103.785V6.45C104.157 6.042 104.619 5.73 105.171 5.514C105.723 5.286 106.329 5.172 106.989 5.172ZM114.61 15.144C114.118 15.144 113.704 14.976 113.368 14.64C113.032 14.304 112.864 13.884 112.864 13.38C112.864 12.864 113.032 12.45 113.368 12.138C113.704 11.814 114.118 11.652 114.61 11.652C115.102 11.652 115.516 11.814 115.852 12.138C116.188 12.45 116.356 12.864 116.356 13.38C116.356 13.884 116.188 14.304 115.852 14.64C115.516 14.976 115.102 15.144 114.61 15.144ZM124.145 5.172C125.345 5.172 126.311 5.532 127.043 6.252C127.787 6.972 128.159 8.04 128.159 9.456V15H125.351V9.888C125.351 9.12 125.183 8.55 124.847 8.178C124.511 7.794 124.025 7.602 123.389 7.602C122.681 7.602 122.117 7.824 121.697 8.268C121.277 8.7 121.067 9.348 121.067 10.212V15H118.259V5.316H120.941V6.45C121.313 6.042 121.775 5.73 122.327 5.514C122.879 5.286 123.485 5.172 124.145 5.172ZM140.8 5.316V13.38C140.8 15.156 140.338 16.476 139.414 17.34C138.49 18.204 137.14 18.636 135.364 18.636C134.428 18.636 133.54 18.522 132.7 18.294C131.86 18.066 131.164 17.736 130.612 17.304L131.728 15.288C132.136 15.624 132.652 15.888 133.276 16.08C133.9 16.284 134.524 16.386 135.148 16.386C136.12 16.386 136.834 16.164 137.29 15.72C137.758 15.288 137.992 14.628 137.992 13.74V13.326C137.26 14.13 136.24 14.532 134.932 14.532C134.044 14.532 133.228 14.34 132.484 13.956C131.752 13.56 131.17 13.008 130.738 12.3C130.306 11.592 130.09 10.776 130.09 9.852C130.09 8.928 130.306 8.112 130.738 7.404C131.17 6.696 131.752 6.15 132.484 5.766C133.228 5.37 134.044 5.172 134.932 5.172C136.336 5.172 137.404 5.634 138.136 6.558V5.316H140.8ZM135.49 12.228C136.234 12.228 136.84 12.012 137.308 11.58C137.788 11.136 138.028 10.56 138.028 9.852C138.028 9.144 137.788 8.574 137.308 8.142C136.84 7.698 136.234 7.476 135.49 7.476C134.746 7.476 134.134 7.698 133.654 8.142C133.174 8.574 132.934 9.144 132.934 9.852C132.934 10.56 133.174 11.136 133.654 11.58C134.134 12.012 134.746 12.228 135.49 12.228Z" fill="white"/>
</svg>
